<svg version="1.2" xmlns="http://www.w3.org/2000/svg" viewBox="0 0 804 270" width="804" height="270"><style></style><path  d="m153.8 24.2h41.1q5.9 0 5.9 5.9v167.1q0 5.8-5.9 5.8h-22.8q-5.8 0-5.8-5.8v-131.8h-1.1l-28.4 93.1q-1.7 5.6-6.9 5.6h-23.4q-5.3 0-6.9-5.6l-28.9-93.4h-1.2v132.1q0 3.3-1.1 4.7-1.1 1.1-4.7 1.1h-22.8q-5.8 0-5.8-5.8v-167.1q0-5.9 5.8-5.9h41.4q3.9 0 5.3 3.9l29.5 98.2h1.6l29.8-98.2q0.8-3.9 5.3-3.9zm107.8 178.8h-6.6q-22 0-33.9-11.7-12-11.7-12-33.6v-51.2q0-21.9 12-33.6 11.9-11.7 33.9-11.7h64.2q6.1 0 6.1 5.9v130.1q0 5.8-6.1 5.8h-23.4q-5.8 0-5.8-5.8v-9.2h-1.1q-3.1 7.5-10.9 11.4-7.7 3.6-16.4 3.6zm28.4-51.7v-56.4q0-3.1-3.3-3.1h-26.2q-8.9 0-12.5 3.9-3.6 3.6-3.6 12.5v47.8q0 8.9 3.6 12.8 3.6 3.6 12.5 3.6h10.3q19.2 0 19.2-21.1zm93.7 45.3h-9.2q-21.4 0-32.5-11.7-10.9-11.6-10.9-33.6v-44.8q0-21.9 12-33.6 11.9-11.7 33.9-11.7h64.2q6.1 0 6.1 5.9v137q0 21.7-12.2 33.4-11.9 11.6-33.6 11.6h-53.4q-3.3 0-4.7-1.1-1.1-1.4-1.1-4.4v-19.2q0-5.8 5.8-5.8h47.5q8.9 0 12.5-3.6 3.9-3.9 3.9-12.6v-21.1h-1.1q-3 7.5-10.8 11.4-7.8 3.9-16.4 3.9zm28.3-51.7v-50q0-3.1-3.3-3.1h-26.1q-8.9 0-12.5 3.9-3.7 3.6-3.7 12.5v41.4q0 8.9 3.7 12.5 3.6 3.6 12.5 3.6h10.3q19.1 0 19.1-20.8zm73.2 58.1h-23.7q-5.8 0-5.8-5.8v-130.1q0-5.9 5.8-5.9h23.7q5.8 0 5.8 5.9v9.1h1.1q6.1-15 27.2-15h8.9q43.7 0 43.7 45.3v90.7q0 5.8-6.1 5.8h-23.4q-5.8 0-5.8-5.8v-89q0-8.9-3.9-12.5-3.6-3.9-12.5-3.9h-10q-19.2 0-19.2 21.1v84.3q0 5.8-5.8 5.8zm198.2 0h-61.5q-21.9 0-33.9-11.7-11.9-11.7-11.9-33.6v-51.2q0-21.9 11.9-33.6 12-11.7 33.9-11.7h22q22 0 33.9 11.7 12 11.7 12 33.6v35.3q0 5.9-5.9 5.9h-69.8q-3.3 0-3.3 3v6.2q0 8.6 3.6 12.5 3.9 3.6 12.8 3.6h56.2q5.8 0 5.8 6.1v18.3q0 3.1-1.4 4.5-1.1 1.1-4.4 1.1zm-69.3-79h37.9q3 0 3-3v-13.4q0-8.8-3.6-12.5-3.6-3.6-12.5-3.6h-11.7q-8.9 0-12.5 3.6-3.6 3.7-3.6 12.5v13.4q0 3 3 3zm82.9-32.2h-11.1q-3.4 0-4.8-1.1-1.1-1.1-1.1-4.5v-19.1q0-5.9 5.9-5.9h11.1q3 0 3-3v-26.4q0-5.9 6.2-5.9h23.3q5.9 0 5.9 5.9v26.4q0 3 3.3 3h21.7q5.8 0 5.8 5.9v19.1q0 3.1-1.4 4.5-1.1 1.1-4.4 1.1h-21.7q-3.3 0-3.3 3.1v61.4q0 8.6 3.8 12.5 3.9 3.6 12.8 3.6h11.2q5.8 0 5.8 5.9v19.1q0 3.1-1.4 4.5-1.1 1.1-4.4 1.1h-17q-22 0-34.2-11.7-12-11.7-12-33.3v-63.1q0-3.1-3-3.1z"/></svg>