<svg version="1.2" xmlns="http://www.w3.org/2000/svg" viewBox="0 0 200 105" width="200" height="105"><style>.a{fill:#fff}.b{fill:#0c6ffc}</style><path class="a" d="m17.2 37.5h5.8v26.5q0 3.1-1.2 5.8-1.1 2.7-3.2 4.7-1.9 2-4.6 3.2-2.7 1.1-5.7 1.1h-2.9v-5.8h2.9q1.8 0 3.5-0.7 1.6-0.7 2.8-1.9 1.2-1.2 1.9-2.9 0.7-1.6 0.7-3.5zm7.9 14.8q0-3.1 1.1-5.7 1.1-2.7 3.1-4.7 2-2 4.7-3.1 2.7-1.2 5.7-1.2 3.1 0 5.7 1.2 2.7 1.1 4.7 3.1 2.1 2 3.2 4.7 1.1 2.6 1.1 5.7 0 3-1.1 5.7-1.1 2.7-3.2 4.8-2 2-4.7 3.2-2.6 1.1-5.7 1.1-3 0-5.7-1.1-2.7-1.2-4.7-3.2-2-2.1-3.1-4.8-1.1-2.7-1.1-5.7zm5.7 0q0 1.9 0.7 3.5 0.7 1.6 1.9 2.9 1.2 1.2 2.8 1.9 1.7 0.7 3.5 0.7 1.8 0 3.5-0.7 1.6-0.7 2.8-1.9 1.2-1.3 1.9-2.9 0.7-1.6 0.7-3.5 0-1.8-0.7-3.4-0.7-1.6-1.9-2.8-1.2-1.3-2.8-1.9-1.7-0.7-3.5-0.7-1.8 0-3.5 0.7-1.6 0.6-2.8 1.9-1.2 1.2-1.9 2.8-0.7 1.6-0.7 3.4zm40.3-14.7q3.1 0 5.7 1.2 2.7 1.1 4.7 3.1 2 2 3.1 4.7 1.2 2.6 1.2 5.7 0 3-1.2 5.7-1.1 2.7-3.1 4.8-2 2-4.7 3.2-2.6 1.1-5.7 1.1-3 0-5.7-1.1-2.6-1.2-4.7-3.2-2-2.1-3.2-4.8-1.1-2.7-1.1-5.7v-26.5h5.8v11.8zm0 23.7q1.9 0 3.4-0.7 1.7-0.7 2.8-1.9 1.3-1.3 1.9-2.9 0.8-1.6 0.8-3.5 0-1.8-0.8-3.4-0.6-1.6-1.9-2.8-1.1-1.3-2.8-1.9-1.5-0.7-3.4-0.7h-8.9v8.8q0 1.9 0.7 3.5 0.7 1.6 1.9 2.9 1.2 1.2 2.9 1.9 1.6 0.7 3.4 0.7zm20.8-19.5q2.1-2.2 4.8-3.2 2.8-1.1 5.6-1.1 2.8 0 5.5 1.1 2.7 1 4.9 3.2l2 2.1-4 4.1-2.1-2q-1.3-1.4-3-2-1.6-0.7-3.3-0.7-1.7 0-3.4 0.7-1.6 0.6-2.9 2-1.3 1.2-2 2.8-0.6 1.7-0.6 3.4 0 1.7 0.6 3.3 0.7 1.7 2 3 2.6 2.6 6.3 2.6 1.7 0 3.4-0.6 1.6-0.7 2.9-2l2.1-2 4 4.1-2 2q-2.2 2.2-4.9 3.3-2.7 1.1-5.5 1.1-2.8 0-5.6-1.1-2.7-1.1-4.8-3.3-2.2-2.1-3.2-4.8-1.1-2.7-1.1-5.5 0-2.9 1.1-5.6 1-2.7 3.2-4.9zm39.8-4.3q3 0 5.7 1.2 2.6 1.1 4.6 3.1 2 2 3.1 4.7 1.2 2.6 1.2 5.7v14.8h-14.6q-3 0-5.7-1.1-2.7-1.2-4.7-3.3-2.1-2-3.3-4.7-1.1-2.7-1.1-5.7 0-3.1 1.1-5.7 1.2-2.7 3.3-4.7 2-2 4.7-3.1 2.7-1.2 5.7-1.2zm0 23.6h8.8v-8.9q0-1.8-0.7-3.4-0.7-1.7-1.9-2.8-1.2-1.3-2.8-2-1.6-0.7-3.4-0.7-1.9 0-3.5 0.7-1.6 0.7-2.9 2-1.2 1.1-1.9 2.8-0.6 1.6-0.6 3.4 0 1.8 0.6 3.5 0.7 1.6 1.9 2.9 1.3 1.1 2.9 1.9 1.6 0.6 3.5 0.6zm31.1-29.6q-1.8 0-3.5 0.7-1.6 0.7-2.8 1.9-1.2 1.2-1.9 2.9-0.7 1.5-0.7 3.4v3h11.8v5.8h-11.8v17.8h-5.8v-26.6q0-3.1 1.1-5.7 1.2-2.7 3.2-4.7 2-2 4.7-3.2 2.7-1.1 5.7-1.1h2.9v5.8zm26 27.1l2.1-2 4.1 4.1-2 2.1q-2.1 2.1-4.8 3.2-2.7 1.1-5.6 1.1-3 0-5.7-1.1-2.7-1.1-4.8-3.2-2.1-2.2-3.2-4.9-1-2.8-1-5.6 0-2.8 1-5.5 1.1-2.7 3.2-4.9 2.2-2.1 4.9-3.2 2.7-1.1 5.6-1.1 2.8 0 5.4 1.1 2.8 1.1 5 3.2l2 2.1-16.3 16.3q2.5 1.3 5.2 0.9 2.8-0.5 4.9-2.6zm-12.5-12.6q-2.6 2.6-2.6 6.3 0 2.1 0.9 3.9 0.8-0.8 2.3-2.4 1.7-1.6 3.4-3.4 1.9-1.8 3.5-3.5 1.7-1.6 2.6-2.5-2.5-1.3-5.3-0.9-2.7 0.4-4.8 2.5z"/><path class="b" d="m179.2 32.8c0 0-7.2-7.8 5.5-15.1 12.8-7.3 12.3-12.1 11.6-14.5-0.6-2.4 3.8 7.1-6.6 15.8-10.4 8.7-10.8 13.2-10.5 13.8z"/><path class="b" d="m182 33.8c0 0 0.1-5 9.2-12.9 9-7.8-3.3 10.5-9.2 12.9z"/></svg>